<?xml version="1.0" encoding="UTF-8"?>
<!DOCTYPE svg PUBLIC "-//W3C//DTD SVG 1.1//EN" "http://www.w3.org/Graphics/SVG/1.1/DTD/svg11.dtd">
<svg xmlns="http://www.w3.org/2000/svg" xmlns:xlink="http://www.w3.org/1999/xlink" version="1.1" width="167px" height="380px" viewBox="-0.5 -0.5 167 380"><defs><linearGradient x1="100%" y1="0%" x2="0%" y2="0%" id="mx-gradient-7253ed-1-ff6600-1-e-0"><stop offset="0%" style="stop-color: rgb(255, 102, 0); stop-opacity: 1;"/><stop offset="100%" style="stop-color: rgb(114, 83, 237); stop-opacity: 1;"/></linearGradient></defs><g><path d="M -0.43 178 Q 166.44 178 166.44 279 Q 166.44 380 -0.43 380 Z" fill-opacity="0.5" fill="url(#mx-gradient-7253ed-1-ff6600-1-e-0)" stroke="none" pointer-events="all"/><path d="M -0.43 0 Q 154.06 0 154.06 79.5 Q 154.06 159 -0.43 159 Z" fill-opacity="0.5" fill="url(#mx-gradient-7253ed-1-ff6600-1-e-0)" stroke="none" pointer-events="all"/><path d="M 8.26 188 Q 158.61 188 158.61 279 Q 158.61 370 8.26 370 Z" fill-opacity="0.5" fill="url(#mx-gradient-7253ed-1-ff6600-1-e-0)" stroke="none" pointer-events="all"/><path d="M 16.52 198 Q 150.35 198 150.35 279 Q 150.35 360 16.52 360 Z" fill-opacity="0.5" fill="url(#mx-gradient-7253ed-1-ff6600-1-e-0)" stroke="none" pointer-events="all"/><path d="M 24.78 208 Q 142.09 208 142.09 279 Q 142.09 350 24.78 350 Z" fill-opacity="0.5" fill="url(#mx-gradient-7253ed-1-ff6600-1-e-0)" stroke="none" pointer-events="all"/><path d="M 33.04 218 Q 133.83 218 133.83 279 Q 133.83 340 33.04 340 Z" fill-opacity="0.5" fill="url(#mx-gradient-7253ed-1-ff6600-1-e-0)" stroke="none" pointer-events="all"/><path d="M 40.87 228 Q 125.14 228 125.14 279 Q 125.14 330 40.87 330 Z" fill-opacity="0.5" fill="url(#mx-gradient-7253ed-1-ff6600-1-e-0)" stroke="none" pointer-events="all"/><path d="M 49.56 238 Q 117.31 238 117.31 279 Q 117.31 320 49.56 320 Z" fill-opacity="0.5" fill="url(#mx-gradient-7253ed-1-ff6600-1-e-0)" stroke="none" pointer-events="all"/><path d="M 57.82 248 Q 109.05 248 109.05 279 Q 109.05 310 57.82 310 Z" fill-opacity="0.5" fill="url(#mx-gradient-7253ed-1-ff6600-1-e-0)" stroke="none" pointer-events="all"/><path d="M 66.08 258 Q 100.78 258 100.78 279 Q 100.78 300 66.08 300 Z" fill-opacity="0.5" fill="url(#mx-gradient-7253ed-1-ff6600-1-e-0)" stroke="none" pointer-events="all"/><path d="M 74.34 268 Q 92.52 268 92.52 279 Q 92.52 290 74.34 290 Z" fill-opacity="0.5" fill="url(#mx-gradient-7253ed-1-ff6600-1-e-0)" stroke="none" pointer-events="all"/><path d="M 8.31 9 Q 145.31 9 145.31 79.5 Q 145.31 150 8.31 150 Z" fill-opacity="0.5" fill="url(#mx-gradient-7253ed-1-ff6600-1-e-0)" stroke="none" pointer-events="all"/><path d="M 18.03 19 Q 135.6 19 135.6 79.5 Q 135.6 140 18.03 140 Z" fill-opacity="0.5" fill="url(#mx-gradient-7253ed-1-ff6600-1-e-0)" stroke="none" pointer-events="all"/><path d="M 27.75 29 Q 125.89 29 125.89 79.5 Q 125.89 130 27.75 130 Z" fill-opacity="0.5" fill="url(#mx-gradient-7253ed-1-ff6600-1-e-0)" stroke="none" pointer-events="all"/><path d="M 37.47 39 Q 116.18 39 116.18 79.5 Q 116.18 120 37.47 120 Z" fill-opacity="0.5" fill="url(#mx-gradient-7253ed-1-ff6600-1-e-0)" stroke="none" pointer-events="all"/><path d="M 47.18 49 Q 106.46 49 106.46 79.5 Q 106.46 110 47.18 110 Z" fill-opacity="0.5" fill="url(#mx-gradient-7253ed-1-ff6600-1-e-0)" stroke="none" pointer-events="all"/><path d="M 56.89 59 Q 96.73 59 96.73 79.5 Q 96.73 100 56.89 100 Z" fill-opacity="0.5" fill="url(#mx-gradient-7253ed-1-ff6600-1-e-0)" stroke="none" pointer-events="all"/><path d="M 66.63 69 Q 87.04 69 87.04 79.5 Q 87.04 90 66.63 90 Z" fill-opacity="0.5" fill="url(#mx-gradient-7253ed-1-ff6600-1-e-0)" stroke="none" pointer-events="all"/></g></svg>